# xmcd
#
# Track frame offsets: 
#        150
#        17526
#        36434
#        53395
#        68623
#        85735
#        102926
#        121457
#        135759
#        153056
#        172480
#        191869
#        211250
#        226908
#        242594
#        256915
#
# Disc length: 3602 seconds
#
# Revision: 0
# Processed by: cddbd v1.5.2PL0 Copyright (c) Steve Scherf et al.
# Submitted via: ExactAudioCopyFreeDBPlugin 1.0
#
DISCID=c80e1010
DTITLE=Nelly - M.O. (Deluxe Edition)
DYEAR=2013
DGENRE=Hip-Hop
TTITLE0=Get Like Me (feat. Nicki Minaj and Pharrell)
TTITLE1=Give U Dat (feat. Future)
TTITLE2=Rick James (feat. T.I.)
TTITLE3=Heaven (feat. Daley)
TTITLE4=Maryland, Massachusetts
TTITLE5=100K (feat. 2 Chainz)
TTITLE6=All Around the World (feat. Trey Songz)
TTITLE7=IDGAF (feat. Pharrell and T.I.)
TTITLE8=U Know U Want To
TTITLE9=My Chick Better (feat. Fabolous and Wiz Khalifa)
TTITLE10=Walk Away (feat. Florida Georgia Line)
TTITLE11=Headphones (feat. Nelly Furtado)
TTITLE12=Ciroc and Simply Lemonade (feat. Yo Gotti)
TTITLE13=Hey Porsche
TTITLE14=Shake Whatever
TTITLE15=Mo's Focused
EXTD=
EXTT0=
EXTT1=
EXTT2=
EXTT3=
EXTT4=
EXTT5=
EXTT6=
EXTT7=
EXTT8=
EXTT9=
EXTT10=
EXTT11=
EXTT12=
EXTT13=
EXTT14=
EXTT15=
PLAYORDER=
